<svg width="1819" height="561" viewBox="0 0 1819 561" fill="none" xmlns="http://www.w3.org/2000/svg">
<rect x="82" y="323" width="52" height="52" rx="26" fill="#CCFFB5"/>
<rect x="276" y="82" width="52" height="52" rx="26" fill="#CCFFB5"/>
<rect x="371" y="246" width="52" height="52" rx="26" fill="#CCFFB5"/>
<rect x="500" y="145" width="52" height="52" rx="26" fill="#CCFFB5"/>
<path d="M108.5 349.5L302 109L397.5 273L525 172.5" stroke="#CCFFB5" stroke-width="15"/>
<rect x="82" y="400" width="52" height="52" rx="26" fill="#B5CCFF"/>
<rect x="276" y="159" width="52" height="52" rx="26" fill="#B5CCFF"/>
<rect x="371" y="323" width="52" height="52" rx="26" fill="#B5CCFF"/>
<rect x="500" y="222" width="52" height="52" rx="26" fill="#B5CCFF"/>
<path d="M108.5 426.5L302 186L397.5 350L525 249.5" stroke="#B5CCFF" stroke-width="15"/>
<rect x="152" y="427" width="52" height="52" rx="26" fill="#FFB5B5"/>
<rect x="346" y="186" width="52" height="52" rx="26" fill="#FFB5B5"/>
<rect x="441" y="350" width="52" height="52" rx="26" fill="#FFB5B5"/>
<rect x="570" y="249" width="52" height="52" rx="26" fill="#FFB5B5"/>
<path d="M178.5 453.5L372 213L467.5 377L595 276.5" stroke="#FFB5B5" stroke-width="15"/>
<path d="M718.858 373V358.142L809.987 222.109H717.867V203.949H834.42V218.807L743.291 354.84H835.41V373H718.858ZM867.107 373V246.212H886.588V373H867.107ZM877.013 225.081C873.216 225.081 869.941 223.788 867.19 221.201C864.493 218.615 863.145 215.506 863.145 211.874C863.145 208.242 864.493 205.133 867.19 202.546C869.941 199.96 873.216 198.667 877.013 198.667C880.81 198.667 884.056 199.96 886.753 202.546C889.504 205.133 890.88 208.242 890.88 211.874C890.88 215.506 889.504 218.615 886.753 221.201C884.056 223.788 880.81 225.081 877.013 225.081ZM977.407 246.212V262.721H911.702V246.212H977.407ZM930.852 215.836H950.333V336.681C950.333 342.183 951.13 346.311 952.726 349.062C954.377 351.759 956.468 353.575 959 354.51C961.586 355.391 964.31 355.831 967.172 355.831C969.318 355.831 971.079 355.721 972.454 355.501C973.83 355.225 974.931 355.005 975.756 354.84L979.718 372.34C978.398 372.835 976.554 373.33 974.188 373.825C971.822 374.376 968.822 374.651 965.19 374.651C959.688 374.651 954.295 373.468 949.012 371.101C943.784 368.735 939.437 365.131 935.97 360.288C932.558 355.446 930.852 349.337 930.852 341.963V215.836ZM1044.02 375.972C1035.99 375.972 1028.69 374.458 1022.15 371.432C1015.6 368.35 1010.4 363.92 1006.55 358.142C1002.69 352.309 1000.77 345.265 1000.77 337.011C1000.77 329.747 1002.2 323.859 1005.06 319.346C1007.92 314.779 1011.75 311.202 1016.53 308.616C1021.32 306.029 1026.6 304.103 1032.38 302.837C1038.21 301.517 1044.08 300.471 1049.96 299.701C1057.67 298.71 1063.91 297.967 1068.7 297.472C1073.54 296.922 1077.07 296.014 1079.27 294.748C1081.52 293.482 1082.65 291.281 1082.65 288.145V287.484C1082.65 279.34 1080.42 273.011 1075.96 268.499C1071.56 263.987 1064.88 261.73 1055.91 261.73C1046.61 261.73 1039.32 263.767 1034.03 267.839C1028.75 271.911 1025.04 276.258 1022.89 280.881L1004.4 274.277C1007.7 266.573 1012.1 260.575 1017.61 256.283C1023.16 251.935 1029.22 248.909 1035.77 247.203C1042.37 245.442 1048.86 244.561 1055.25 244.561C1059.32 244.561 1064 245.056 1069.28 246.047C1074.62 246.983 1079.76 248.936 1084.71 251.908C1089.72 254.879 1093.88 259.364 1097.18 265.362C1100.48 271.361 1102.13 279.395 1102.13 289.465V373H1082.65V355.831H1081.66C1080.34 358.582 1078.14 361.526 1075.06 364.663C1071.98 367.8 1067.88 370.469 1062.76 372.67C1057.64 374.871 1051.39 375.972 1044.02 375.972ZM1046.99 358.472C1054.7 358.472 1061.19 356.959 1066.47 353.932C1071.81 350.906 1075.83 346.999 1078.52 342.211C1081.28 337.423 1082.65 332.388 1082.65 327.105V309.276C1081.83 310.266 1080.01 311.174 1077.2 312C1074.45 312.77 1071.26 313.458 1067.63 314.063C1064.05 314.614 1060.56 315.109 1057.14 315.549C1053.79 315.934 1051.06 316.265 1048.97 316.54C1043.91 317.2 1039.18 318.273 1034.78 319.759C1030.43 321.19 1026.91 323.363 1024.21 326.28C1021.57 329.142 1020.25 333.049 1020.25 338.001C1020.25 344.77 1022.75 349.888 1027.76 353.354C1032.82 356.766 1039.23 358.472 1046.99 358.472ZM1276.36 256.778H1255.89C1254.68 250.89 1252.56 245.717 1249.53 241.259C1246.56 236.802 1242.93 233.06 1238.64 230.033C1234.4 226.952 1229.7 224.641 1224.52 223.1C1219.35 221.559 1213.96 220.788 1208.35 220.788C1198.11 220.788 1188.84 223.375 1180.53 228.548C1172.27 233.72 1165.7 241.342 1160.8 251.412C1155.96 261.483 1153.54 273.837 1153.54 288.475C1153.54 303.113 1155.96 315.467 1160.8 325.537C1165.7 335.607 1172.27 343.229 1180.53 348.402C1188.84 353.575 1198.11 356.161 1208.35 356.161C1213.96 356.161 1219.35 355.391 1224.52 353.85C1229.7 352.309 1234.4 350.025 1238.64 346.999C1242.93 343.917 1246.56 340.147 1249.53 335.69C1252.56 331.178 1254.68 326.005 1255.89 320.172H1276.36C1274.82 328.811 1272.01 336.543 1267.94 343.367C1263.87 350.19 1258.81 355.996 1252.75 360.783C1246.7 365.516 1239.9 369.12 1232.37 371.597C1224.88 374.073 1216.87 375.311 1208.35 375.311C1193.93 375.311 1181.11 371.789 1169.88 364.746C1158.65 357.702 1149.82 347.686 1143.38 334.699C1136.94 321.713 1133.73 306.304 1133.73 288.475C1133.73 270.645 1136.94 255.237 1143.38 242.25C1149.82 229.263 1158.65 219.248 1169.88 212.204C1181.11 205.16 1193.93 201.638 1208.35 201.638C1216.87 201.638 1224.88 202.876 1232.37 205.353C1239.9 207.829 1246.7 211.461 1252.75 216.249C1258.81 220.981 1263.87 226.759 1267.94 233.583C1272.01 240.351 1274.82 248.083 1276.36 256.778ZM1326.28 296.729V373H1306.8V203.949H1326.28V266.023H1327.93C1330.9 259.474 1335.36 254.274 1341.3 250.422C1347.3 246.515 1355.28 244.561 1365.24 244.561C1373.88 244.561 1381.45 246.295 1387.94 249.762C1394.43 253.173 1399.47 258.429 1403.05 265.527C1406.68 272.571 1408.49 281.541 1408.49 292.437V373H1389.01V293.758C1389.01 283.687 1386.4 275.901 1381.17 270.398C1376 264.84 1368.82 262.061 1359.63 262.061C1353.24 262.061 1347.52 263.409 1342.46 266.105C1337.45 268.802 1333.49 272.736 1330.57 277.909C1327.71 283.082 1326.28 289.355 1326.28 296.729ZM1481.44 375.972C1473.41 375.972 1466.12 374.458 1459.57 371.432C1453.02 368.35 1447.82 363.92 1443.97 358.142C1440.12 352.309 1438.19 345.265 1438.19 337.011C1438.19 329.747 1439.62 323.859 1442.48 319.346C1445.34 314.779 1449.17 311.202 1453.96 308.616C1458.74 306.029 1464.03 304.103 1469.8 302.837C1475.64 301.517 1481.5 300.471 1487.39 299.701C1495.09 298.71 1501.34 297.967 1506.12 297.472C1510.97 296.922 1514.49 296.014 1516.69 294.748C1518.95 293.482 1520.07 291.281 1520.07 288.145V287.484C1520.07 279.34 1517.84 273.011 1513.39 268.499C1508.98 263.987 1502.3 261.73 1493.33 261.73C1484.03 261.73 1476.74 263.767 1471.45 267.839C1466.17 271.911 1462.46 276.258 1460.31 280.881L1441.82 274.277C1445.12 266.573 1449.53 260.575 1455.03 256.283C1460.59 251.935 1466.64 248.909 1473.19 247.203C1479.79 245.442 1486.29 244.561 1492.67 244.561C1496.74 244.561 1501.42 245.056 1506.7 246.047C1512.04 246.983 1517.18 248.936 1522.14 251.908C1527.14 254.879 1531.3 259.364 1534.6 265.362C1537.9 271.361 1539.55 279.395 1539.55 289.465V373H1520.07V355.831H1519.08C1517.76 358.582 1515.56 361.526 1512.48 364.663C1509.4 367.8 1505.3 370.469 1500.18 372.67C1495.06 374.871 1488.82 375.972 1481.44 375.972ZM1484.41 358.472C1492.12 358.472 1498.61 356.959 1503.89 353.932C1509.23 350.906 1513.25 346.999 1515.95 342.211C1518.7 337.423 1520.07 332.388 1520.07 327.105V309.276C1519.25 310.266 1517.43 311.174 1514.63 312C1511.87 312.77 1508.68 313.458 1505.05 314.063C1501.47 314.614 1497.98 315.109 1494.57 315.549C1491.21 315.934 1488.49 316.265 1486.4 316.54C1481.33 317.2 1476.6 318.273 1472.2 319.759C1467.85 321.19 1464.33 323.363 1461.63 326.28C1458.99 329.142 1457.67 333.049 1457.67 338.001C1457.67 344.77 1460.17 349.888 1465.18 353.354C1470.24 356.766 1476.65 358.472 1484.41 358.472ZM1575.11 373V246.212H1593.93V265.362H1595.25C1597.56 259.089 1601.74 253.999 1607.8 250.092C1613.85 246.185 1620.67 244.231 1628.27 244.231C1629.7 244.231 1631.49 244.259 1633.63 244.314C1635.78 244.369 1637.4 244.451 1638.5 244.561V264.372C1637.84 264.207 1636.33 263.959 1633.96 263.629C1631.65 263.244 1629.2 263.051 1626.62 263.051C1620.45 263.051 1614.95 264.344 1610.11 266.931C1605.32 269.462 1601.52 272.984 1598.72 277.496C1595.97 281.954 1594.59 287.044 1594.59 292.767V373H1575.11ZM1724.68 246.212V262.721H1658.97V246.212H1724.68ZM1678.12 215.836H1697.61V336.681C1697.61 342.183 1698.4 346.311 1700 349.062C1701.65 351.759 1703.74 353.575 1706.27 354.51C1708.86 355.391 1711.58 355.831 1714.44 355.831C1716.59 355.831 1718.35 355.721 1719.73 355.501C1721.1 355.225 1722.2 355.005 1723.03 354.84L1726.99 372.34C1725.67 372.835 1723.83 373.33 1721.46 373.825C1719.09 374.376 1716.1 374.651 1712.46 374.651C1706.96 374.651 1701.57 373.468 1696.28 371.101C1691.06 368.735 1686.71 365.131 1683.24 360.288C1679.83 355.446 1678.12 349.337 1678.12 341.963V215.836Z" fill="white"/>
</svg>
